<svg xmlns="http://www.w3.org/2000/svg" xml:space="preserve" width="2000" height="1500" data-id="lg_IVpmXQzZKZO6qslX4q" data-version="1" viewBox="0 0 2000 1500"><path fill="#fff" stroke="transparent" d="M0 0h2000v1500H0z"/><g data-padding="20"><g transform="translate(-1608.314 -1205.942)scale(2.54073)"><rect width="467.184" height="118.65" x="536.098" y="514.135" fill="none" rx="0" ry="0" transform="matrix(.97 0 0 .97 265.09 314.15)"/><path fill="#1b4571" d="M804.019 902.326v-72.42h28.8q8.28 0 14.73 2.39 6.45 2.38 10.89 7 4.44 4.63 6.78 11.3 2.34 6.68 2.34 15.27 0 7.66-2.06 14.29t-6.55 11.61q-4.5 4.97-11.86 7.77-7.36 2.79-17.98 2.79h-17.32Zm16.71-13.36h8.33q7.82 0 12.42-3.04 4.59-3.05 6.63-8.33 2.03-5.28 2.03-11.94 0-5.03-1.2-9.14-1.19-4.11-3.65-7.08-2.47-2.97-6.28-4.57-3.8-1.6-9.09-1.6h-9.19v39.05Zm92.33 14.73q-9.8 0-16.96-3.02t-11.78-8.28q-4.63-5.25-6.89-12.01-2.26-6.75-2.26-14.22 0-10.56 4.19-19.12t12.5-13.59q8.3-5.02 20.74-5.02 9.45 0 16.51 2.92t11.76 8.1q4.69 5.18 7.03 11.98 2.34 6.81 2.34 14.63 0 10.82-4.29 19.3-4.3 8.48-12.57 13.41-8.28 4.92-20.32 4.92m-.25-13.76q5.03 0 8.78-1.91 3.76-1.9 6.25-5.25t3.73-7.65q1.25-4.29 1.25-9.06 0-5.03-1.35-9.37-1.34-4.34-3.91-7.59-2.56-3.25-6.27-5.08t-8.48-1.83q-4.93 0-8.71 1.88-3.79 1.88-6.33 5.2-2.53 3.33-3.86 7.65-1.32 4.31-1.32 9.14 0 4.82 1.27 9.12 1.27 4.29 3.79 7.61 2.51 3.33 6.3 5.23 3.78 1.91 8.86 1.91m83.29 13.76q-8.84 0-15.9-2.69t-12.06-7.69q-5-5.01-7.64-11.89t-2.64-15.26q0-10.87 4.41-19.43 4.42-8.55 12.7-13.43 8.28-4.87 19.81-4.87 3.5 0 6.93.45 3.43.46 6.58 1.22 3.14.76 5.86 1.75t4.85 2.11l-1.27 15.54q-3.96-2.49-7.62-3.98-3.65-1.5-7.03-2.19-3.38-.68-6.42-.68-6.2 0-11.02 2.71-4.83 2.72-7.6 7.98-2.77 5.25-2.77 12.82 0 4.83 1.43 9.12 1.42 4.29 4.29 7.59t7.18 5.18q4.32 1.88 10.11 1.88 2.39 0 4.8-.33t4.85-1.04 4.88-1.96q2.43-1.24 4.87-3.02l.92 15.34q-2.19 1.22-4.83 2.13-2.64.92-5.56 1.5t-5.99.86q-3.08.28-6.12.28m46.26-1.37h-16.76q1.93-5.84 4.04-12.29t3.99-12.24l8.18-24.83q2.18-6.76 3.96-12.17 1.77-5.41 3.55-10.89h21.54q1.82 5.69 3.58 11.07 1.75 5.38 3.93 11.99l8.08 24.88q1.98 5.99 4.03 12.34l3.94 12.14h-17.27q-1.62-5.79-3.35-11.86t-3.3-11.5l-9.95-34.89h-1.22l-10.06 34.53q-1.62 5.64-3.43 11.81-1.8 6.17-3.48 11.91m36.27-15.13h-35.56l1.78-12.5h32.35Zm41.34 15.13h-16.41v-72.42h27.78q8.84 0 14.96 1.95 6.12 1.96 9.29 6.53 3.18 4.57 3.18 12.44 0 6.25-2.47 11.23-2.46 4.97-7.89 7.87-5.44 2.89-14.22 2.89l6.45-6.09 9.85 14.52q2.28 3.36 4.87 7.19t5.06 7.47q2.46 3.63 4.34 6.42h-18.94q-2.75-4.27-5.29-8.18t-4.92-7.61l-11.73-18.49 9.9 7.57h-16.81v-11.94h12.09q4.06 0 6.83-.99t4.19-3.38q1.42-2.38 1.42-6.55 0-3.1-.92-5-.91-1.9-2.46-2.97t-3.45-1.42q-1.91-.36-3.84-.36h-22.75l11.89-10.46v58.46Zm102.37 0h-48.55v-72.42h48.09v13.66h-39.71l7.97-11.02v67.14l-6.9-11.02h39.1Zm-22.75-30.17h-13.26v-12.69h33.93v12.69h-9.45Z"/><rect width="577.894" height="56.5" x="480.743" y="545.21" fill="none" rx="0" ry="0" transform="matrix(.97 0 0 .97 280 399.83)"/><path fill="#1b4571" d="M766.709 971.286h-4.42q1.01-2.78 2.11-5.85t2.12-5.83l4.28-11.85q1.14-3.19 2.08-5.77.94-2.57 1.89-5.19h5.75q.94 2.66 1.86 5.23.92 2.56 2.06 5.75l4.26 11.88q1.01 2.85 2.09 5.86 1.07 3.01 2.06 5.77h-4.54q-1.04-3.02-2.14-6.23-1.1-3.2-2.07-6.03l-6.29-18.28h-.41l-6.33 18.11q-1.04 2.95-2.16 6.18-1.11 3.23-2.2 6.25m20.12-8.66h-18.16l.39-3.43h17.46Zm27.02 8.66h-5.95q-.92-2.59-1.97-5.51-1.06-2.93-1.95-5.42l-3.87-10.81q-.65-1.86-1.44-4.03-.78-2.16-1.58-4.41t-1.55-4.31h4.86q1.26 3.7 2.71 7.91t2.71 7.91l4.86 14.15h.41l4.91-14.22q1.28-3.77 2.68-7.84 1.41-4.06 2.71-7.91h4.69q-.72 2.08-1.51 4.3-.78 2.21-1.56 4.37-.77 2.17-1.42 4.03l-3.87 10.88q-.9 2.52-1.91 5.4Zm19.43 0h-4.43q1.02-2.78 2.12-5.85t2.12-5.83l4.28-11.85q1.13-3.19 2.08-5.77.94-2.57 1.88-5.19h5.76q.94 2.66 1.86 5.23.92 2.56 2.06 5.75l4.25 11.88q1.02 2.85 2.1 5.86 1.07 3.01 2.06 5.77h-4.54q-1.04-3.02-2.14-6.23-1.1-3.2-2.07-6.03l-6.29-18.28h-.41l-6.34 18.11q-1.04 2.95-2.15 6.18t-2.2 6.25m20.12-8.66h-18.16l.39-3.43h17.46Zm16.41 8.66h-4.45v-34.49h4.45v28.95Zm30.54 0h-21.54v-34.49h4.37v33.81l-1.64-3.21h18.81Zm7.52 0h-4.42q1.01-2.78 2.11-5.85 1.11-3.07 2.12-5.83l4.28-11.85q1.14-3.19 2.08-5.77.94-2.57 1.89-5.19h5.75q.95 2.66 1.87 5.23.91 2.56 2.05 5.75l4.26 11.88q1.01 2.85 2.09 5.86l2.07 5.77h-4.55q-1.04-3.02-2.14-6.23-1.1-3.2-2.07-6.03l-6.29-18.28h-.41l-6.33 18.11q-1.04 2.95-2.15 6.18-1.12 3.23-2.21 6.25m20.13-8.66h-18.17l.39-3.43h17.46Zm22.61 8.66h-10.74v-34.49h12.67q3.03 0 5.14.57 2.12.57 3.45 1.62 1.33 1.06 1.96 2.55.63 1.5.63 3.39 0 2.2-.8 3.85-.8 1.64-2.17 2.73-1.36 1.09-3.1 1.62v.43q1.78.34 3.38 1.26t2.59 2.63q.99 1.7.99 4.36 0 2.03-.69 3.76t-2.27 3.01q-1.59 1.28-4.28 2-2.7.71-6.76.71m-6.46-3.63h6.8q3.29 0 5.3-.75 2.02-.75 2.93-2.12.91-1.38.91-3.29 0-3.17-2.23-4.54-2.22-1.36-6.24-1.36h-8.44v-3.51h8.44q2.66 0 4.34-.87 1.69-.87 2.46-2.28.77-1.4.77-3.07 0-2.83-1.75-4.13-1.75-1.31-5.21-1.31h-8.08v23.12Zm48.49 3.63h-21.55v-34.49h4.38v33.81l-1.65-3.21h18.82Zm27.62 0h-21.48v-34.49h21.43v3.75h-19.57l2.42-3.12v33.21l-2.17-3.1h19.37Zm-11.47-15.65h-6.67v-3.65h17.12v3.65h-4.77Zm43.4 16.19q-4.37 0-7.66-1.41-3.29-1.42-5.48-3.9-2.19-2.47-3.28-5.69-1.08-3.22-1.08-6.8 0-5.03 2.04-9.07 2.04-4.03 5.91-6.4t9.41-2.37q4.21 0 7.44 1.37 3.22 1.38 5.43 3.83 2.2 2.44 3.31 5.68t1.11 6.94q0 5.1-2.03 9.13t-5.88 6.36q-3.84 2.33-9.24 2.33m-.12-3.77q3.32 0 5.71-1.15 2.4-1.15 3.96-3.13t2.3-4.51q.75-2.53.75-5.26 0-2.95-.81-5.5t-2.41-4.48q-1.61-1.92-3.98-3-2.37-1.07-5.52-1.07-3.24 0-5.64 1.13-2.41 1.14-4.01 3.11-1.59 1.97-2.39 4.5t-.8 5.31q0 2.8.78 5.32.77 2.51 2.35 4.49 1.59 1.97 4.01 3.1 2.41 1.14 5.7 1.14m28.36 3.23h-4.16v-34.49h3.94q3.1 4.36 5.95 8.4t5.63 7.95l7.48 10.55h.36v-26.9h4.16v34.49h-3.89l-5.4-7.63q-2.83-4-6.21-8.79l-7.52-10.62h-.34v21.5Zm42.95 0h-4.43q1.02-2.78 2.12-5.85t2.11-5.83l4.29-11.85q1.13-3.19 2.08-5.77.94-2.57 1.88-5.19h5.76q.94 2.66 1.86 5.23.92 2.56 2.06 5.75l4.25 11.88q1.02 2.85 2.09 5.86l2.07 5.77h-4.55q-1.04-3.02-2.14-6.23-1.1-3.2-2.06-6.03l-6.29-18.28h-.41l-6.34 18.11q-1.04 2.95-2.15 6.18t-2.2 6.25m20.12-8.66h-18.16l.38-3.43h17.47Zm36.75 9.2q-4.09 0-7.36-1.33-3.28-1.33-5.58-3.73-2.3-2.41-3.52-5.66-1.22-3.26-1.22-7.1 0-5.22 2.15-9.25 2.16-4.03 5.98-6.3t8.9-2.27q1.71 0 3.33.24t3.08.65q1.45.41 2.68.9 1.23.48 2.13.99l-.39 4.2q-1.89-1.11-3.66-1.8-1.78-.69-3.49-1-1.7-.31-3.32-.31-3.73 0-6.63 1.69t-4.56 4.82q-1.65 3.13-1.65 7.46 0 2.88.86 5.42.85 2.54 2.56 4.47 1.7 1.94 4.23 3.04t5.89 1.1q1.23 0 2.47-.16 1.23-.15 2.44-.49t2.38-.91 2.31-1.34l.34 4.16q-1.02.65-2.24 1.13-1.22.49-2.56.79t-2.75.45q-1.4.14-2.8.14m39.06-.54h-21.55v-34.49h4.38v33.81l-1.65-3.21h18.82Zm10.67 0h-4.45v-34.49h4.45v28.95Zm24.61.54q-4.09 0-7.36-1.33-3.28-1.33-5.58-3.73-2.29-2.41-3.52-5.66-1.22-3.26-1.22-7.1 0-5.22 2.15-9.25 2.16-4.03 5.98-6.3t8.9-2.27q1.72 0 3.34.24t3.07.65 2.68.9q1.23.48 2.13.99l-.39 4.2q-1.88-1.11-3.66-1.8t-3.48-1q-1.71-.31-3.33-.31-3.72 0-6.63 1.69-2.9 1.69-4.55 4.82-1.66 3.13-1.66 7.46 0 2.88.86 5.42t2.56 4.47q1.71 1.94 4.23 3.04 2.53 1.1 5.89 1.1 1.24 0 2.47-.16 1.23-.15 2.44-.49t2.38-.91q1.18-.57 2.31-1.34l.34 4.16q-1.01.65-2.24 1.13-1.22.49-2.56.79t-2.74.45q-1.41.14-2.81.14m44.05-.54h-5.49q-2.3-2.49-4.32-4.68t-3.93-4.27l-6.55-7.08h-2.37v-3.61h2.35l5.68-5.92q2.01-2.08 3.97-4.14 1.95-2.05 4.54-4.79h5.32q-2.66 2.74-5.19 5.36-2.52 2.63-5.04 5.24l-6.38 6.65-.07-1.94 7.08 7.81q1.67 1.79 3.54 3.87 1.88 2.08 3.69 4.04 1.82 1.96 3.17 3.46m-22.15 0h-4.38v-34.49h4.38v28.95Z"/><path fill="#333" d="M1011.453 792.402c-20.99 0-41.978-.06-62.967.06-3.02.016-4.726-.935-6.236-3.608a28735 28735 0 0 0-62.982-111.09c-1.45-2.553-1.314-4.44.09-6.886 21.2-37.056 42.34-74.157 63.39-111.302 1.45-2.552 3.11-3.398 5.98-3.398q63.148.113 126.296 0c2.824 0 4.47.785 5.935 3.382a21191 21191 0 0 0 62.559 110.034c1.993 3.473 1.978 6.085 0 9.558a19748 19748 0 0 0-61.895 108.69c-1.918 3.398-4.032 4.681-7.973 4.636-20.732-.196-41.464-.09-62.212-.09ZM968.01 605.57v147.136c41.706-23.677 82.763-46.992 124.514-70.699-41.872-25.7-82.854-50.857-124.515-76.436m4.334-5.21c40.846 25.067 80.876 49.634 121.812 74.76-.438-3.306-.634-5.51-1.027-7.67-5.738-32.012-11.506-64.009-17.23-96.02-.8-4.486-.83-4.59-5.314-3.127a145108 145108 0 0 0-77.403 25.157c-6.644 2.16-13.258 4.38-20.853 6.885Zm-11.868 149.49V607.383c-24.1 23.164-47.52 45.678-71.303 68.54 23.677 24.552 47.082 48.832 71.303 73.944Zm13.242 7.49c1.435.544 2.1.876 2.779 1.042 30.336 7.55 60.687 15.115 91.038 22.635 4.892 1.208 4.877 1.117 6.01-3.715 6.492-27.874 13.016-55.749 19.493-83.623.287-1.239.378-2.522.695-4.712-40.332 22.968-79.773 45.451-120.03 68.373ZM951.28 563.124c.664 1.721 1.057 2.9 1.57 4.001 3.805 8.2 7.807 16.308 11.355 24.613 1.344 3.141 2.884 3.292 5.738 2.356 28.147-9.226 56.338-18.346 84.5-27.512 2.824-.92 5.617-1.963 8.41-2.945-.06-.166-.135-.347-.196-.513Zm134.254 18.165c-.287.121-.59.242-.876.378.68 3.805 1.374 7.625 2.038 11.43 4.848 27.301 9.725 54.587 14.496 81.903.453 2.612 1.284 3.337 3.957 2.673 6.085-1.495 12.276-2.628 18.39-3.987 4.003-.89 7.974-1.918 12.565-3.02-17.033-30.11-33.81-59.75-50.585-89.377Zm-193.93 81.6.544.5c.393-.258.846-.469 1.193-.8 21.623-20.673 43.216-41.36 64.87-61.987 1.736-1.646 1.6-3.005.694-4.937-3.865-8.17-7.595-16.414-11.415-24.613-.423-.922-1.088-1.722-1.978-3.11-18.211 32.086-36.06 63.51-53.908 94.948m245.043 14.39c-11.748 2.507-22.302 4.681-32.767 7.142-1.117.257-2.355 2.13-2.672 3.458-6.6 27.694-13.092 55.432-19.57 83.156-.196.845-.211 1.736-.317 2.612.21.046.423.106.634.151 18.045-31.83 36.074-63.646 54.707-96.519Zm-80.513 108.418.09-.453c-.77-.302-1.51-.68-2.31-.876-27.995-7.05-56.005-14.058-83.986-21.155-2.793-.71-4.711-.392-6.16 2.431-1.722 3.337-3.896 6.448-5.83 9.664-1.962 3.277-3.88 6.584-6.115 10.374h104.31Zm-110.003-3.745c4.077-6.825 7.474-12.956 11.34-18.77 2.053-3.095 1.827-4.982-.77-7.655-18.936-19.388-37.705-38.943-56.535-58.422-.8-.83-1.691-1.57-2.537-2.34-.211.181-.422.347-.634.528 16.233 28.615 32.45 57.23 49.136 86.674Z"/></g><path fill="transparent" stroke="transparent" stroke-width="2.635" d="M260.978 187.5h1478.044v1125H260.978z"/></g></svg>